<svg xmlns="http://www.w3.org/2000/svg" width="1200" height="750" viewBox="0 0 1200 750" role="img" aria-labelledby="title desc">
  <title id="title">Virtual Warehouse mockup</title><desc id="desc">Warehouse inventory and CRD proposal diff with pull request action.</desc>
  <style>text{font-family:Inter,"Noto Sans JP",system-ui,sans-serif;fill:#17233a}.muted{fill:#64748b}.small{font-size:13px}.label{font-size:12px;font-weight:700}.h1{font-size:26px;font-weight:700}.h2{font-size:17px;font-weight:700}.panel{fill:#fff;stroke:#dbe3ef}.blue{fill:#2563eb}.white{fill:#fff}.ok{fill:#147d64}.code{font-family:ui-monospace,SFMono-Regular,monospace;font-size:13px}</style>
  <rect width="1200" height="750" fill="#f7f9fc"/><rect x="0" y="0" width="1200" height="68" fill="#eef4f8"/><text x="28" y="42" class="h2">◉ Shirokuma</text><text x="220" y="42" class="label muted">DEN　 WAREHOUSES　 CATALOG　 PAWPRINTS　 POLICY　 FINOPS</text><text x="44" y="116" class="h1">Virtual Warehouses</text><text x="44" y="143" class="small muted">Desired and runtime state are shown separately · observed 10:42 JST</text>
  <rect x="44" y="174" width="246" height="146" rx="8" class="panel"/><text x="64" y="204" class="label">ANALYTICS-PROD</text><text x="64" y="242" font-size="30" font-weight="700">L</text><text x="106" y="240" class="small muted">8 vCPU · 32 GiB</text><text x="64" y="276" class="small ok">● Converged</text><text x="64" y="301" class="small muted">¥52,600 / month</text><rect x="310" y="174" width="246" height="146" rx="8" class="panel"/><text x="330" y="204" class="label">ETL-NIGHTLY</text><text x="330" y="242" font-size="30" font-weight="700">M</text><text x="372" y="240" class="small muted">4 vCPU · 16 GiB</text><text x="330" y="276" class="small ok">● Chilled</text><text x="330" y="301" class="small muted">¥14,200 / month</text><rect x="576" y="174" width="246" height="146" rx="8" class="panel"/><text x="596" y="204" class="label">ADHOC-DEV</text><text x="596" y="242" font-size="30" font-weight="700">S</text><text x="638" y="240" class="small muted">2 vCPU · 8 GiB</text><text x="596" y="276" class="small" fill="#a15c00">◐ Reconciling</text><text x="596" y="301" class="small muted">PR #183 merged</text>
  <rect x="44" y="352" width="1112" height="350" rx="8" class="panel"/><text x="68" y="386" class="h2">Query Doctor proposal</text><rect x="68" y="404" width="504" height="236" rx="5" fill="#101827"/><text x="88" y="434" class="code white">VirtualWarehouse / analytics-prod</text><text x="88" y="469" class="code" fill="#fca5a5">- size: L</text><text x="88" y="499" class="code" fill="#86efac">+ size: M</text><text x="88" y="529" class="code white">  autoSuspend: 300s</text><text x="88" y="559" class="code white">  repository: platform/warehouses</text><text x="88" y="594" class="code white">  policyTier: standard</text><text x="610" y="430" class="label">WHY THIS CHANGE</text><text x="610" y="462" class="small">P95 utilization stayed below 38% for 14 days.</text><text x="610" y="498" class="label">ESTIMATED COST</text><text x="610" y="528" class="h2">−¥18,400 / month</text><text x="610" y="564" class="label">POLICY &amp; BLAST RADIUS</text><text x="610" y="594" class="small ok">✓ Allowed · standard review</text><text x="610" y="620" class="small">Affects analytics-prod only · no storage change</text><rect x="610" y="646" width="178" height="40" rx="6" class="blue"/><text x="631" y="671" class="label white">Create pull request</text><text x="808" y="671" class="small muted">No direct apply</text>
</svg>
