<svg xmlns="http://www.w3.org/2000/svg" width="1200" height="750" viewBox="0 0 1200 750" role="img" aria-labelledby="title desc">
  <title id="title">Pawprints audit timeline mockup</title><desc id="desc">Authoritative agent lifecycle with policy, CI, cost and trace evidence.</desc>
  <style>text{font-family:Inter,"Noto Sans JP",system-ui,sans-serif;fill:#17233a}.muted{fill:#64748b}.small{font-size:13px}.label{font-size:12px;font-weight:700}.h1{font-size:26px;font-weight:700}.h2{font-size:17px;font-weight:700}.panel{fill:#fff;stroke:#dbe3ef}.ok{fill:#147d64}.blue{fill:#2563eb}.danger{fill:#b42318}</style>
  <rect width="1200" height="750" fill="#f7f9fc"/><text x="44" y="56" class="h1">Pawprints</text><text x="44" y="84" class="small muted">Authoritative lifecycle · newest display event does not redefine outcome</text><rect x="44" y="112" width="730" height="590" rx="8" class="panel"/><text x="70" y="148" class="h2">Run pw_01J7A · analytics-prod right-size</text><line x1="104" y1="188" x2="104" y2="640" stroke="#cbd5e1" stroke-width="2"/>
  <circle cx="104" cy="206" r="9" class="ok"/><text x="132" y="202" class="label">OBSERVED</text><text x="132" y="225" class="small muted">P95 utilization 38% · snapshot 10:31:04</text><circle cx="104" cy="282" r="9" class="ok"/><text x="132" y="278" class="label">PROPOSAL RECORDED</text><text x="132" y="301" class="small muted">L → M · repository binding verified</text><circle cx="104" cy="358" r="9" class="ok"/><text x="132" y="354" class="label">POLICY ALLOWED</text><text x="132" y="377" class="small muted">OPA vw.standard-sizing · decision pol_718</text><circle cx="104" cy="434" r="9" class="blue"/><text x="132" y="430" class="label">PULL REQUEST OPEN</text><text x="132" y="453" class="small muted">#184 · human approval required</text><circle cx="104" cy="510" r="9" class="ok"/><text x="132" y="506" class="label">CI PASSED</text><text x="132" y="529" class="small muted">18 checks · commit 6f31d2a</text><circle cx="104" cy="586" r="9" fill="#fff" stroke="#64748b" stroke-width="2"/><text x="132" y="582" class="label">AWAITING MERGE</text><text x="132" y="605" class="small muted">Reconciliation has not started</text>
  <rect x="804" y="112" width="352" height="590" rx="8" class="panel"/><text x="830" y="148" class="h2">Evidence</text><text x="830" y="188" class="label">POLICY</text><text x="830" y="214" class="small ok">✓ Allowed · pol_718</text><text x="830" y="256" class="label">CI</text><text x="830" y="282" class="small ok">✓ Passed · 18 checks</text><text x="830" y="324" class="label">INFERENCE COST</text><text x="830" y="350" class="small">8,420 tokens · ¥12.40</text><text x="830" y="392" class="label">LATENCY</text><text x="830" y="418" class="small">Agent 12.8s · policy 84ms</text><text x="830" y="460" class="label">LINKS</text><text x="830" y="488" class="small blue">PR #184 ↗　Issue #171 ↗</text><text x="830" y="518" class="small blue">OTel trace 4b2f…91a ↗</text><text x="830" y="548" class="small blue">Runbook RB-002 ↗</text><rect x="830" y="590" width="278" height="74" rx="6" fill="#fff1f0"/><text x="848" y="617" class="label danger">BLOCKED EXAMPLE</text><text x="848" y="642" class="small">Missing repository binding blocks PR creation.</text>
</svg>
