<svg xmlns="http://www.w3.org/2000/svg" width="1200" height="750" viewBox="0 0 1200 750" role="img" aria-labelledby="title desc">
  <title id="title">Catalog and lineage mockup</title><desc id="desc">Selected table with owner, schema, quality, lineage and downstream impact.</desc>
  <style>text{font-family:Inter,"Noto Sans JP",system-ui,sans-serif;fill:#17233a}.muted{fill:#64748b}.small{font-size:13px}.label{font-size:12px;font-weight:700}.h1{font-size:26px;font-weight:700}.h2{font-size:17px;font-weight:700}.panel{fill:#fff;stroke:#dbe3ef}.ok{fill:#147d64}.blue{fill:#2563eb}.warn{fill:#a15c00}</style>
  <rect width="1200" height="750" fill="#f7f9fc"/><text x="42" y="54" class="h1">Catalog &amp; Lineage</text><text x="42" y="82" class="small muted">Anchored record: polaris.analytics.orders_daily · snapshot 84721</text><rect x="42" y="108" width="228" height="594" rx="8" class="panel"/><text x="64" y="142" class="label">POLARIS CATALOG</text><text x="64" y="184" class="small">▾ analytics</text><text x="84" y="220" class="small">　customers</text><rect x="60" y="238" width="188" height="36" rx="5" fill="#e8f1ff"/><text x="84" y="261" class="small blue">● orders_daily</text><text x="84" y="302" class="small">　revenue_monthly</text><text x="64" y="350" class="small">▸ operations</text>
  <rect x="292" y="108" width="550" height="594" rx="8" class="panel"/><text x="318" y="145" class="h2">analytics.orders_daily</text><text x="318" y="174" class="small muted">Curated Iceberg table · production</text><text x="318" y="216" class="label">OWNER</text><text x="450" y="216" class="small">Data Commerce · oncall-data-commerce</text><text x="318" y="252" class="label">QUALITY</text><text x="450" y="252" class="small ok">✓ 98 / 100 · freshness 14m</text><text x="318" y="288" class="label">TAGS</text><text x="450" y="288" class="small">PII-limited　gold　finance</text><line x1="318" y1="316" x2="816" y2="316" stroke="#dbe3ef"/><text x="318" y="350" class="h2">Schema</text><text x="318" y="386" class="label">FIELD</text><text x="566" y="386" class="label">TYPE</text><text x="700" y="386" class="label">QUALITY</text><text x="318" y="422" class="small">order_id</text><text x="566" y="422" class="small">string</text><text x="700" y="422" class="small ok">unique 100%</text><text x="318" y="458" class="small">customer_id</text><text x="566" y="458" class="small">string</text><text x="700" y="458" class="small ok">valid 99.8%</text><text x="318" y="494" class="small">net_amount</text><text x="566" y="494" class="small">decimal</text><text x="700" y="494" class="small warn">null 0.4%</text><line x1="318" y1="520" x2="816" y2="520" stroke="#dbe3ef"/><text x="318" y="554" class="h2">Snapshot</text><line x1="340" y1="594" x2="790" y2="594" stroke="#94a3b8" stroke-width="4"/><circle cx="676" cy="594" r="10" class="blue"/><text x="318" y="628" class="small muted">84710　　　　　　　　　84721 · current</text><text x="318" y="668" class="small blue">Open source definition ↗　Open Pawprints ↗</text>
  <rect x="864" y="108" width="294" height="594" rx="8" class="panel"/><text x="888" y="145" class="h2">Impact analysis</text><text x="888" y="176" class="small muted">What breaks if this changes?</text><rect x="888" y="202" width="244" height="76" rx="6" fill="#fff4db"/><text x="906" y="230" class="label warn">HIGH · 2 ASSETS</text><text x="906" y="255" class="small">revenue_kpi · finance_close</text><text x="888" y="316" class="label">LINEAGE</text><text x="888" y="350" class="small">raw.orders → orders_daily</text><text x="888" y="380" class="small">orders_daily → revenue_monthly</text><text x="888" y="422" class="label">CURATOR PROPOSAL</text><text x="888" y="452" class="small">Owner inferred from direct CODEOWNERS</text><text x="888" y="478" class="small">binding. Awaiting human approval.</text><rect x="888" y="508" width="132" height="38" rx="5" class="blue"/><text x="906" y="532" class="label" fill="#fff">Review proposal</text><text x="888" y="590" class="label">DIRECT SOURCES</text><text x="888" y="620" class="small blue">OpenLineage run ↗</text><text x="888" y="648" class="small blue">OpenMetadata asset ↗</text><text x="888" y="676" class="small blue">Polaris snapshot ↗</text>
</svg>
