<svg xmlns="http://www.w3.org/2000/svg" width="1200" height="750" viewBox="0 0 1200 750" role="img" aria-labelledby="title desc">
  <title id="title">Shirokuma L0 business application mockups</title><desc id="desc">Overview of Den, Warehouses, Pawprints, and Catalog and Lineage.</desc>
  <style>text{font-family:Inter,"Noto Sans JP",system-ui,sans-serif;fill:#17233a}.muted{fill:#64748b}.label{font-size:12px;font-weight:700}.h1{font-size:28px;font-weight:700}.h2{font-size:17px;font-weight:700}.panel{fill:#fff;stroke:#cfd9e7}.line{stroke:#b9c6d8;stroke-width:2}.blue{fill:#2563eb}.teal{fill:#0f766e}</style>
  <rect width="1200" height="750" fill="#eef4f8"/><text x="48" y="56" class="h1">Shirokuma UI baseline</text><text x="48" y="86" class="muted" font-size="14">The bear proposes · humans approve intent · GitOps reconciles</text>
  <g transform="translate(48 120)"><rect width="530" height="248" rx="10" class="panel"/><text x="22" y="36" class="h2">Den</text><rect x="22" y="58" width="486" height="40" rx="5" fill="#f3f6fa"/><rect x="22" y="120" width="300" height="94" rx="6" fill="#eef6ff"/><text x="40" y="148" class="label">NEEDS REVIEW</text><text x="40" y="178">Right-size analytics-prod</text><rect x="40" y="190" width="100" height="15" rx="3" class="blue"/><line x1="352" y1="126" x2="352" y2="214" class="line"/><circle cx="352" cy="140" r="6" class="teal"/><circle cx="352" cy="178" r="6" class="blue"/><text x="374" y="145" font-size="12">Policy passed</text><text x="374" y="183" font-size="12">CI completed</text></g>
  <g transform="translate(622 120)"><rect width="530" height="248" rx="10" class="panel"/><text x="22" y="36" class="h2">Virtual Warehouses</text><rect x="22" y="58" width="138" height="70" rx="6" fill="#f3f6fa"/><rect x="174" y="58" width="138" height="70" rx="6" fill="#f3f6fa"/><rect x="326" y="58" width="138" height="70" rx="6" fill="#f3f6fa"/><text x="36" y="84" class="label">ANALYTICS · L</text><text x="36" y="108" font-size="12">¥52,600 / mo</text><rect x="22" y="148" width="276" height="68" rx="5" fill="#101827"/><text x="38" y="174" font-size="12" fill="#fca5a5">- size: L</text><text x="38" y="198" font-size="12" fill="#86efac">+ size: M</text><rect x="326" y="170" width="160" height="38" rx="5" class="blue"/><text x="347" y="194" class="label" fill="#fff">Create pull request</text></g>
  <g transform="translate(48 404)"><rect width="530" height="248" rx="10" class="panel"/><text x="22" y="36" class="h2">Pawprints</text><line x1="48" y1="65" x2="48" y2="214" class="line"/><circle cx="48" cy="78" r="7" class="teal"/><circle cx="48" cy="125" r="7" class="teal"/><circle cx="48" cy="172" r="7" class="blue"/><text x="70" y="82" font-size="12">Policy allowed · pol_718</text><text x="70" y="129" font-size="12">CI passed · 18 checks</text><text x="70" y="176" font-size="12">PR #184 · awaiting merge</text><rect x="326" y="62" width="180" height="146" rx="6" fill="#f3f6fa"/><text x="344" y="88" class="label">EVIDENCE</text><text x="344" y="119" font-size="12">8,420 tokens · ¥12.40</text><text x="344" y="149" font-size="12">OTel trace 4b2f…</text><text x="344" y="179" font-size="12">Issue #171 · PR #184</text></g>
  <g transform="translate(622 404)"><rect width="530" height="248" rx="10" class="panel"/><text x="22" y="36" class="h2">Catalog &amp; Lineage</text><rect x="22" y="58" width="130" height="158" rx="6" fill="#f3f6fa"/><text x="36" y="84" class="label">ANALYTICS</text><text x="36" y="116" font-size="12">customers</text><text x="36" y="146" font-size="12" fill="#2563eb">● orders_daily</text><text x="176" y="82" class="label">ORDERS_DAILY</text><text x="176" y="112" font-size="12">Owner · Data Commerce</text><text x="176" y="140" font-size="12">Quality · 98 / 100</text><line x1="176" y1="168" x2="342" y2="168" class="line"/><circle cx="206" cy="168" r="6" class="teal"/><circle cx="312" cy="168" r="6" class="blue"/><rect x="364" y="58" width="142" height="158" rx="6" fill="#fff4db"/><text x="378" y="86" class="label">IMPACT · HIGH</text><text x="378" y="118" font-size="12">revenue_kpi</text><text x="378" y="148" font-size="12">finance_close</text><text x="378" y="186" font-size="12">2 downstream assets</text></g>
  <text x="48" y="704" class="muted" font-size="13">Repository-traceable static SVGs · L0 information architecture only · no runtime or direct-apply behavior</text>
</svg>
